<mxfile host="app.diagrams.net" agent="Mozilla/5.0 (Windows NT 10.0; Win64; x64) AppleWebKit/537.36 (KHTML, like Gecko) Chrome/125.0.0.0 Safari/537.36 OPR/111.0.0.0" version="24.7.10">
  <diagram name="Page-1" id="h4XMNU8wB3Rf7mdV33Tj">
    <mxGraphModel dx="1391" dy="803" grid="1" gridSize="10" guides="1" tooltips="1" connect="1" arrows="1" fold="1" page="1" pageScale="1" pageWidth="850" pageHeight="1100" math="0" shadow="0">
      <root>
        <mxCell id="0" />
        <mxCell id="1" parent="0" />
        <mxCell id="6bcvodx_XCmuK3Zd0dsd-12" value="" style="edgeStyle=orthogonalEdgeStyle;rounded=0;orthogonalLoop=1;jettySize=auto;html=1;" edge="1" parent="1" source="6bcvodx_XCmuK3Zd0dsd-1" target="6bcvodx_XCmuK3Zd0dsd-2">
          <mxGeometry relative="1" as="geometry" />
        </mxCell>
        <mxCell id="6bcvodx_XCmuK3Zd0dsd-1" value="START" style="ellipse;whiteSpace=wrap;html=1;" vertex="1" parent="1">
          <mxGeometry x="40" y="40" width="120" height="80" as="geometry" />
        </mxCell>
        <mxCell id="6bcvodx_XCmuK3Zd0dsd-13" value="" style="edgeStyle=orthogonalEdgeStyle;rounded=0;orthogonalLoop=1;jettySize=auto;html=1;" edge="1" parent="1" source="6bcvodx_XCmuK3Zd0dsd-2" target="6bcvodx_XCmuK3Zd0dsd-3">
          <mxGeometry relative="1" as="geometry" />
        </mxCell>
        <mxCell id="6bcvodx_XCmuK3Zd0dsd-2" value="hours = 0&lt;div&gt;materials = 0.0&lt;/div&gt;&lt;div&gt;laborCost = 0&lt;/div&gt;&lt;div&gt;materialsCost = 0.0&lt;/div&gt;&lt;div&gt;total = 0.0&lt;/div&gt;" style="rounded=0;whiteSpace=wrap;html=1;" vertex="1" parent="1">
          <mxGeometry x="40" y="160" width="120" height="80" as="geometry" />
        </mxCell>
        <mxCell id="6bcvodx_XCmuK3Zd0dsd-14" value="" style="edgeStyle=orthogonalEdgeStyle;rounded=0;orthogonalLoop=1;jettySize=auto;html=1;" edge="1" parent="1" source="6bcvodx_XCmuK3Zd0dsd-3" target="6bcvodx_XCmuK3Zd0dsd-5">
          <mxGeometry relative="1" as="geometry" />
        </mxCell>
        <mxCell id="6bcvodx_XCmuK3Zd0dsd-3" value="INPUT hours" style="shape=parallelogram;perimeter=parallelogramPerimeter;whiteSpace=wrap;html=1;fixedSize=1;" vertex="1" parent="1">
          <mxGeometry x="40" y="280" width="120" height="80" as="geometry" />
        </mxCell>
        <mxCell id="6bcvodx_XCmuK3Zd0dsd-15" value="" style="edgeStyle=orthogonalEdgeStyle;rounded=0;orthogonalLoop=1;jettySize=auto;html=1;" edge="1" parent="1" source="6bcvodx_XCmuK3Zd0dsd-5" target="6bcvodx_XCmuK3Zd0dsd-6">
          <mxGeometry relative="1" as="geometry" />
        </mxCell>
        <mxCell id="6bcvodx_XCmuK3Zd0dsd-5" value="INPUT materials" style="shape=parallelogram;perimeter=parallelogramPerimeter;whiteSpace=wrap;html=1;fixedSize=1;" vertex="1" parent="1">
          <mxGeometry x="40" y="400" width="120" height="80" as="geometry" />
        </mxCell>
        <mxCell id="6bcvodx_XCmuK3Zd0dsd-16" value="" style="edgeStyle=orthogonalEdgeStyle;rounded=0;orthogonalLoop=1;jettySize=auto;html=1;" edge="1" parent="1" source="6bcvodx_XCmuK3Zd0dsd-6" target="6bcvodx_XCmuK3Zd0dsd-7">
          <mxGeometry relative="1" as="geometry" />
        </mxCell>
        <mxCell id="6bcvodx_XCmuK3Zd0dsd-6" value="laborCost = hours * 30" style="rounded=0;whiteSpace=wrap;html=1;" vertex="1" parent="1">
          <mxGeometry x="40" y="520" width="120" height="80" as="geometry" />
        </mxCell>
        <mxCell id="6bcvodx_XCmuK3Zd0dsd-17" value="" style="edgeStyle=orthogonalEdgeStyle;rounded=0;orthogonalLoop=1;jettySize=auto;html=1;" edge="1" parent="1" source="6bcvodx_XCmuK3Zd0dsd-7" target="6bcvodx_XCmuK3Zd0dsd-10">
          <mxGeometry relative="1" as="geometry" />
        </mxCell>
        <mxCell id="6bcvodx_XCmuK3Zd0dsd-7" value="materialsCost = 1.2 * materials" style="rounded=0;whiteSpace=wrap;html=1;" vertex="1" parent="1">
          <mxGeometry x="200" y="520" width="120" height="80" as="geometry" />
        </mxCell>
        <mxCell id="6bcvodx_XCmuK3Zd0dsd-19" value="" style="edgeStyle=orthogonalEdgeStyle;rounded=0;orthogonalLoop=1;jettySize=auto;html=1;" edge="1" parent="1" source="6bcvodx_XCmuK3Zd0dsd-9" target="6bcvodx_XCmuK3Zd0dsd-11">
          <mxGeometry relative="1" as="geometry" />
        </mxCell>
        <mxCell id="6bcvodx_XCmuK3Zd0dsd-9" value="OUTPUT&lt;div&gt;total&lt;/div&gt;" style="shape=parallelogram;perimeter=parallelogramPerimeter;whiteSpace=wrap;html=1;fixedSize=1;" vertex="1" parent="1">
          <mxGeometry x="200" y="280" width="120" height="80" as="geometry" />
        </mxCell>
        <mxCell id="6bcvodx_XCmuK3Zd0dsd-18" value="" style="edgeStyle=orthogonalEdgeStyle;rounded=0;orthogonalLoop=1;jettySize=auto;html=1;" edge="1" parent="1" source="6bcvodx_XCmuK3Zd0dsd-10" target="6bcvodx_XCmuK3Zd0dsd-9">
          <mxGeometry relative="1" as="geometry" />
        </mxCell>
        <mxCell id="6bcvodx_XCmuK3Zd0dsd-10" value="total = laborCost + materialsCost" style="rounded=0;whiteSpace=wrap;html=1;" vertex="1" parent="1">
          <mxGeometry x="200" y="400" width="120" height="80" as="geometry" />
        </mxCell>
        <mxCell id="6bcvodx_XCmuK3Zd0dsd-11" value="end" style="ellipse;whiteSpace=wrap;html=1;" vertex="1" parent="1">
          <mxGeometry x="200" y="160" width="120" height="80" as="geometry" />
        </mxCell>
      </root>
    </mxGraphModel>
  </diagram>
</mxfile>
